<svg width="196" height="72" xmlns="http://www.w3.org/2000/svg" xmlns:xlink="http://www.w3.org/1999/xlink" xml:space="preserve" overflow="hidden"><defs><clipPath id="clip0"><rect x="960" y="580" width="196" height="72"/></clipPath><clipPath id="clip1"><rect x="960" y="580" width="195" height="72"/></clipPath><clipPath id="clip2"><rect x="960" y="580" width="195" height="72"/></clipPath><clipPath id="clip3"><rect x="960" y="580" width="195" height="72"/></clipPath><clipPath id="clip4"><rect x="960" y="580" width="195" height="72"/></clipPath></defs><g clip-path="url(#clip0)" transform="translate(-960 -580)"><g clip-path="url(#clip1)"><g clip-path="url(#clip2)"><g clip-path="url(#clip3)"><path d="M20.4326 37.7476C11.2893 37.7476 4.04738 35.0633 4.04738 24.8784L4.04738 6.36816 12.974 6.36816 12.974 25.6124C12.974 29.8625 16.4691 31.3305 20.2579 31.3305 21.4389 31.3281 22.6143 31.1683 23.753 30.8551L23.753 6.38913 32.1553 6.38913 32.1553 36.727C28.2828 37.3916 24.3617 37.733 20.4326 37.7476Z" fill="#1D1B1F" fill-rule="nonzero" fill-opacity="1" transform="matrix(1.01072 0 0 1 960 580.147)"/><path d="M52.9305 37.7056C44.2695 37.7056 36.8109 32.414 36.8109 22.0124 36.8109 11.7856 43.4866 5.55029 53.6295 5.55029 56.5323 5.54077 59.4166 6.01321 62.1647 6.94835L60.1165 14.0435C58.3396 13.1541 56.3852 12.6762 54.3984 12.6454 49.5891 12.6454 46.08 15.6373 46.08 21.7328 46.08 27.6746 50.1064 30.6594 54.699 30.6594 56.709 30.692 58.6941 30.2107 60.466 29.2614L62.2835 36.021C59.298 37.1603 56.1259 37.7316 52.9305 37.7056Z" fill="#1D1B1F" fill-rule="nonzero" fill-opacity="1" transform="matrix(1.01072 0 0 1 960 580.147)"/><path d="M66.8482 36.9647 66.8482 6.36816 75.7748 6.36816 75.7748 29.8136 88.1266 29.8136 88.1266 36.9647Z" fill="#1D1B1F" fill-rule="nonzero" fill-opacity="1" transform="matrix(1.01072 0 0 1 960 580.147)"/><path d="M108.839 37.3981C106.155 37.3981 104.645 36.1887 104.071 34.4062 102.163 36.5802 100.213 37.6637 96.7876 37.6637 93.0394 37.8368 89.8602 34.9382 89.6868 31.1897 89.6777 30.9921 89.677 30.7942 89.6854 30.5965 89.6854 24.0536 96.487 22.9701 101.772 22.9701 102.771 22.9701 103.337 22.8792 103.337 22.1033L103.337 21.2365C103.337 19.8944 102.422 18.5452 99.0035 18.5452 96.7897 18.5737 94.6276 19.2201 92.7612 20.4117L90.9437 14.7355C94.0502 13.4107 97.4027 12.7602 100.779 12.8272 105.372 12.8272 111.181 14.2252 111.181 21.2155L111.181 30.6384C111.181 31.3794 111.223 32.1553 112.047 32.1553 112.362 32.1468 112.672 32.0731 112.956 31.9386L113.257 36.8318C111.808 37.1723 110.327 37.3621 108.839 37.3981ZM103.337 27.3041C102.855 27.2621 102.296 27.3041 101.863 27.3041 100.129 27.3041 97.5285 27.7375 97.5285 30.0303 97.4775 31.2955 98.4617 32.3627 99.727 32.414 99.7885 32.4165 99.8507 32.4165 99.9122 32.414 100.9 32.4583 101.86 32.0824 102.555 31.3794 103.105 30.7603 103.386 29.9482 103.337 29.1216Z" fill="#1D1B1F" fill-rule="nonzero" fill-opacity="1" transform="matrix(1.01072 0 0 1 960 580.147)"/><path d="M129.551 37.7056C127.714 37.7213 125.926 37.1098 124.483 35.972L124.483 36.9647 116.465 36.9647 116.465 4.8932 124.7 4.8932 124.7 16.2105C126.259 14.2602 128.083 12.8272 131.159 12.8272 137.352 12.8272 140.085 18.8528 140.085 25.0043 140.085 30.6804 137.226 37.7056 129.551 37.7056ZM127.866 19.6287C127.016 19.6341 126.203 19.9788 125.609 20.5864 124.893 21.2005 124.536 22.1334 124.658 23.068L124.658 29.6598C124.658 31.1278 125.567 32.1274 127.65 32.1274 130.809 32.1274 131.55 28.4435 131.55 25.9759 131.55 23.5084 131.026 19.6287 127.866 19.6287Z" fill="#1D1B1F" fill-rule="nonzero" fill-opacity="1" transform="matrix(1.01072 0 0 1 960 580.147)"/><path d="M12.946 57.0687C13.4773 58.1103 14.7984 60.466 15.2388 61.2629 16.0427 62.5841 16.3922 63.0874 17.0423 63.0874 17.2323 63.0905 17.4207 63.0523 17.5946 62.9755L17.7553 65.8835C16.9207 66.0738 16.0669 66.1676 15.2109 66.1631 13.1767 66.1631 12.1631 65.6109 11.2124 63.5767 10.8699 62.8777 9.75845 60.6198 9.24816 59.5293 8.74409 59.8243 8.22366 60.0904 7.68932 60.3262L7.68932 65.9184 2.94291 65.9184 2.94291 49.6311 7.68932 49.6311 7.68932 56.1041C10.0865 54.6497 11.837 52.334 12.5825 49.6311L17.6225 49.6311C16.8036 52.505 15.1812 55.0853 12.946 57.0687Z" fill="#1D1B1F" fill-rule="nonzero" fill-opacity="1" transform="matrix(1.01072 0 0 1 960 580.147)"/><path d="M29.1495 66.1771C27.7165 66.1771 26.9056 65.527 26.6051 64.5763 25.6745 65.7556 24.2247 66.4034 22.7254 66.3099 20.7279 66.4043 19.032 64.8615 18.9376 62.8639 18.9325 62.7567 18.9322 62.6494 18.9367 62.5421 18.9367 59.047 22.5647 58.4738 25.3818 58.4738 25.913 58.4738 26.2136 58.4318 26.2136 58.0124L26.2136 57.5511C26.2136 56.852 25.7313 56.153 23.9068 56.153 22.7249 56.1687 21.5705 56.5124 20.5724 57.1456L19.6078 54.1188C21.2643 53.4149 23.051 53.0695 24.8505 53.1052 27.3041 53.1052 30.4008 53.8672 30.4008 57.565L30.4008 62.605C30.4008 62.9965 30.4008 63.4089 30.8621 63.4089 31.0289 63.4053 31.1931 63.3673 31.3445 63.2971L31.5052 65.9045C30.7318 66.0779 29.9421 66.1693 29.1495 66.1771ZM26.2136 60.8155C25.9619 60.8155 25.6614 60.8155 25.4307 60.8155 24.508 60.8155 23.1169 61.0462 23.1169 62.2695 23.0893 62.9446 23.6142 63.5141 24.2892 63.5418 24.3225 63.5431 24.3559 63.5431 24.3891 63.5418 24.9119 63.5617 25.4191 63.3614 25.7872 62.9895 26.0784 62.6592 26.2267 62.2267 26.1996 61.7872Z" fill="#1D1B1F" fill-rule="nonzero" fill-opacity="1" transform="matrix(1.01072 0 0 1 960 580.147)"/><path d="M48.1002 65.9674 43.0882 65.9674 42.0256 62.6819C41.8369 62.0808 41.4944 60.6687 41.3755 60.0256L41.3336 60.0256C41.1938 60.7666 40.8722 62.0808 40.6346 62.7518L39.572 65.9674 34.6019 65.9674 32.1553 53.4618 36.4334 53.4618 37.1324 58.9142C37.3002 60.1654 37.461 61.8501 37.5309 62.5212L37.5728 62.5212C37.6917 61.8221 38.0831 60.1654 38.4047 58.9631L39.3064 55.7755 43.7452 55.7755 44.626 59.0051C44.9476 60.1654 45.325 61.8012 45.4788 62.5002L45.5278 62.5002C45.5697 61.8012 45.7375 60.1445 45.8983 58.8722L46.5973 53.4408 50.4559 53.4408Z" fill="#1D1B1F" fill-rule="nonzero" fill-opacity="1" transform="matrix(1.01072 0 0 1 960 580.147)"/><path d="M61.6264 66.1771C60.2284 66.1771 59.3825 65.527 59.0819 64.5763 58.1557 65.7493 56.7154 66.3964 55.2233 66.3099 53.2259 66.4082 51.5271 64.8686 51.4288 62.8712 51.4234 62.7616 51.423 62.6518 51.4276 62.5421 51.4276 59.047 55.0555 58.4738 57.8796 58.4738 58.4109 58.4738 58.7115 58.4318 58.7115 58.0124L58.7115 57.5511C58.7115 56.852 58.2221 56.153 56.3977 56.153 55.2179 56.1685 54.0658 56.5122 53.0703 57.1456L52.0777 54.0839C53.7345 53.381 55.5209 53.0356 57.3204 53.0703 59.767 53.0703 62.8637 53.8322 62.8637 57.5301L62.8637 62.5701C62.8637 62.9616 62.8637 63.374 63.325 63.374 63.4941 63.3703 63.6606 63.3323 63.8144 63.2621L63.9751 65.8695C63.205 66.0533 62.4179 66.1564 61.6264 66.1771ZM58.7184 60.8155C58.4598 60.8155 58.1662 60.8155 57.9285 60.8155 57.0058 60.8155 55.6217 61.0462 55.6217 62.2695 55.5941 62.9446 56.119 63.5141 56.7941 63.5418 56.8274 63.5431 56.8607 63.5431 56.894 63.5418 57.4173 63.5644 57.9255 63.3636 58.292 62.9895 58.5858 62.6602 58.7366 62.2277 58.7115 61.7872Z" fill="#1D1B1F" fill-rule="nonzero" fill-opacity="1" transform="matrix(1.01072 0 0 1 960 580.147)"/><path d="M76.9491 54.2726C76.6989 54.1797 76.4333 54.1323 76.1662 54.1328 75.7132 54.112 75.3022 54.399 75.1666 54.8318 75.7594 55.5355 76.0788 56.4286 76.0684 57.3484 76.0684 60.0117 73.8315 61.5425 70.567 61.5425 70.0085 61.542 69.4515 61.4881 68.9033 61.3817 68.6373 61.6707 68.4475 62.0215 68.3511 62.4023 68.5118 62.7239 68.9033 62.8637 69.5534 62.8637L73.3421 62.8637C75.3973 62.8637 77.2008 63.8563 77.2008 66.24 77.2008 69.7351 73.3911 70.8816 70.4761 70.8816 67.7499 70.8816 64.9538 70.0287 64.9538 67.9736 64.9436 67.4753 65.1564 66.9986 65.534 66.6734L68.6516 66.7713C68.5815 66.9401 68.5413 67.1199 68.5328 67.3025 68.5328 68.1134 69.4625 68.5258 70.567 68.5258 72.2796 68.5258 72.9507 67.7849 72.9507 67.1278 72.9507 66.3449 72.3495 66.1142 71.7484 66.1142L68.3301 66.1142C66.233 66.1142 65.0936 65.3732 64.7441 64.2617 65.0885 62.873 65.7897 61.5983 66.7783 60.5639 65.7585 59.8205 65.1785 58.6161 65.2334 57.3553 65.2334 55.1115 66.8482 53.0563 70.6858 53.0563 71.5358 53.0393 72.3817 53.1791 73.1814 53.4687 73.3568 52.0257 74.5941 50.9482 76.0474 50.9732 76.4759 50.9819 76.9023 51.0358 77.3196 51.134ZM70.6579 55.426C69.5674 55.426 69.1969 56.5585 69.1969 57.3693 69.1969 58.1802 69.4975 59.2637 70.595 59.2637 71.6924 59.2637 72.0489 58.1522 72.0489 57.3414 72.0489 56.5305 71.7693 55.426 70.6649 55.426Z" fill="#1D1B1F" fill-rule="nonzero" fill-opacity="1" transform="matrix(1.01072 0 0 1 960 580.147)"/><path d="M89.3849 66.1771C87.3717 66.1771 86.7705 65.2474 86.5887 64.3247 85.7429 65.5882 84.3204 66.3441 82.8 66.3379 80.0039 66.3379 78.8435 64.4854 78.8435 62.0808L78.8435 53.4618 83.1845 53.4618 83.1845 60.9693C83.1845 62.1017 83.6668 62.6819 84.5825 62.6819 85.0103 62.6841 85.42 62.5096 85.715 62.1996 86.0819 61.8323 86.2595 61.3169 86.1973 60.8016L86.1973 53.4618 90.5662 53.4618 90.5662 62.5491C90.5662 62.9406 90.6152 63.353 91.0555 63.353 91.2156 63.3508 91.3736 63.3125 91.5169 63.2412L91.6777 65.8485C90.9269 66.0375 90.1587 66.1476 89.3849 66.1771Z" fill="#1D1B1F" fill-rule="nonzero" fill-opacity="1" transform="matrix(1.01072 0 0 1 960 580.147)"/><path d="M99.7165 66.3379C95.8089 66.3379 93.1736 63.8423 93.1736 59.8649 93.1736 56.139 95.3965 53.0703 99.5278 53.0703 100.857 53.0459 102.177 53.2834 103.414 53.7693L102.352 57.1456C101.751 56.7565 101.054 56.5412 100.339 56.5235 98.5841 56.5235 97.7522 57.9216 97.7522 59.781 97.7522 61.6404 98.9755 62.9476 100.457 62.9476 101.191 62.9335 101.909 62.7442 102.555 62.3953L103.456 65.548C102.281 66.0754 101.006 66.3449 99.7165 66.3379Z" fill="#1D1B1F" fill-rule="nonzero" fill-opacity="1" transform="matrix(1.01072 0 0 1 960 580.147)"/><path d="M113.026 65.9394 113.026 58.4318C113.026 57.2994 112.565 56.7402 111.481 56.7402 111.011 56.7418 110.558 56.9159 110.209 57.2295 109.788 57.5634 109.578 58.0964 109.657 58.6276L109.657 65.9394 105.288 65.9394 105.288 48.8412 109.657 48.8412 109.657 54.8249C110.52 53.6985 111.866 53.0476 113.285 53.0703 116.242 53.0703 117.374 54.9157 117.374 57.3204L117.374 65.9394Z" fill="#1D1B1F" fill-rule="nonzero" fill-opacity="1" transform="matrix(1.01072 0 0 1 960 580.147)"/><path d="M122.666 52.4272C121.268 52.4272 120.31 51.6443 120.31 50.4629 120.31 49.4004 121.121 48.4777 122.666 48.4777 124.21 48.4777 124.979 49.2885 124.979 50.4629 124.979 51.6373 124.057 52.4272 122.666 52.4272ZM123.728 66.1771C121.505 66.1771 120.422 65.0656 120.422 62.8707L120.422 53.4618 124.812 53.4618 124.812 62.5491C124.812 62.9616 124.812 63.353 125.273 63.353 125.442 63.3494 125.609 63.3113 125.762 63.2412L125.923 65.8485C125.206 66.0391 124.47 66.1493 123.728 66.1771Z" fill="#1D1B1F" fill-rule="nonzero" fill-opacity="1" transform="matrix(1.01072 0 0 1 960 580.147)"/><path d="M134.871 65.9394 134.871 49.6311 139.631 49.6311 139.631 62.1297 146.223 62.1297 146.223 65.9394Z" fill="#1D1B1F" fill-rule="nonzero" fill-opacity="1" transform="matrix(1.01072 0 0 1 960 580.147)"/><path d="M157.282 66.1771C155.883 66.1771 155.038 65.527 154.737 64.5763 153.807 65.7556 152.357 66.4034 150.857 66.3099 148.864 66.4083 147.168 64.8721 147.069 62.8785 147.064 62.7665 147.064 62.6542 147.069 62.5421 147.069 59.047 150.697 58.4738 153.514 58.4738 154.045 58.4738 154.346 58.4318 154.346 58.0124L154.346 57.5511C154.346 56.852 153.863 56.153 152.032 56.153 150.852 56.1685 149.7 56.5122 148.704 57.1456L147.733 54.1188C149.392 53.4155 151.181 53.0702 152.983 53.1052 155.429 53.1052 158.533 53.8672 158.533 57.565L158.533 62.605C158.533 62.9965 158.533 63.4089 158.994 63.4089 159.161 63.4053 159.325 63.3673 159.477 63.2971L159.637 65.9045C158.863 66.0774 158.074 66.1688 157.282 66.1771ZM154.332 60.8155C154.08 60.8155 153.779 60.8155 153.549 60.8155 152.619 60.8155 151.235 61.0462 151.235 62.2695 151.208 62.9446 151.732 63.5141 152.407 63.5418 152.441 63.5431 152.474 63.5431 152.507 63.5418 153.03 63.5617 153.538 63.3614 153.905 62.9895 154.197 62.6592 154.345 62.2267 154.318 61.7872Z" fill="#1D1B1F" fill-rule="nonzero" fill-opacity="1" transform="matrix(1.01072 0 0 1 960 580.147)"/><path d="M168.319 66.3379C167.337 66.3493 166.382 66.0208 165.614 65.4082L165.614 65.9394 161.336 65.9394 161.336 48.8412 165.726 48.8412 165.726 54.8738C166.499 53.7358 167.789 53.0591 169.165 53.0703 172.471 53.0703 173.925 56.2788 173.925 59.5643 173.932 62.5911 172.409 66.3379 168.319 66.3379ZM167.417 56.6983C166.966 56.7002 166.533 56.8813 166.215 57.2016 165.837 57.5307 165.646 58.0251 165.705 58.5227L165.705 62.0179C165.705 62.8008 166.187 63.332 167.299 63.332 168.983 63.332 169.396 61.3678 169.396 60.0536 169.396 58.7394 169.102 56.6983 167.417 56.6983Z" fill="#1D1B1F" fill-rule="nonzero" fill-opacity="1" transform="matrix(1.01072 0 0 1 960 580.147)"/><g clip-path="url(#clip4)"><path d="M215.301 11.2404C215.301 31.1226 199.183 47.2404 179.301 47.2404 159.419 47.2404 143.301 31.1226 143.301 11.2404 143.301-8.64186 159.419-24.7596 179.301-24.7596 199.183-24.7596 215.301-8.64186 215.301 11.2404Z" fill="#0066F9" fill-rule="nonzero" fill-opacity="1" transform="matrix(1.01072 0 0 1 960 580.147)"/></g></g></g></g></g></svg>