<?xml version="1.0" standalone="no"?>
<!DOCTYPE svg PUBLIC "-//W3C//DTD SVG 20010904//EN"
 "http://www.w3.org/TR/2001/REC-SVG-20010904/DTD/svg10.dtd">
<svg version="1.0" xmlns="http://www.w3.org/2000/svg"
 width="1919.000000pt" height="593.000000pt" viewBox="0 0 1919.000000 593.000000"
 preserveAspectRatio="xMidYMid meet">

<g transform="translate(0.000000,593.000000) scale(0.100000,-0.100000)"
fill="#000000" stroke="none">
<path d="M14420 4725 c-4 -5 -21 -59 -38 -120 -257 -936 -119 -1948 378 -2780
145 -242 305 -448 515 -664 412 -423 894 -723 1452 -905 377 -122 687 -170
1098 -171 357 0 581 27 910 112 138 35 374 112 428 139 l27 15 0 2189 0 2190
-2381 2 c-1578 2 -2383 0 -2389 -7z"/>
<path d="M11580 2695 l0 -1595 400 0 400 0 0 45 c0 25 2 45 4 45 2 0 26 -15
54 -34 263 -177 694 -166 985 23 352 230 553 753 498 1296 -67 656 -417 1048
-914 1022 -128 -6 -196 -25 -317 -84 -82 -40 -108 -59 -192 -144 l-98 -98 0
559 0 560 -410 0 -410 0 0 -1595z m1286 90 c93 -54 149 -148 187 -310 30 -132
31 -425 0 -540 -67 -255 -195 -368 -398 -352 -119 9 -202 56 -239 136 -20 45
-21 59 -21 451 l0 405 26 55 c31 65 96 132 156 161 88 42 211 40 289 -6z"/>
<path d="M5037 4205 c-494 -72 -880 -295 -1110 -641 -260 -391 -342 -935 -216
-1439 67 -269 193 -485 389 -671 175 -165 329 -257 558 -334 154 -51 243 -68
442 -85 316 -28 666 15 975 119 58 20 101 40 103 48 3 16 -155 613 -169 640
-8 16 -13 15 -63 -7 -173 -76 -308 -105 -504 -105 -424 0 -723 220 -835 615
-26 91 -36 381 -17 494 59 350 270 583 600 662 74 18 336 18 420 0 111 -23
269 -71 303 -91 18 -11 39 -20 47 -20 12 0 40 84 114 340 53 187 95 344 91
350 -18 29 -335 102 -542 124 -168 19 -460 19 -586 1z"/>
<path d="M390 3223 c0 -914 6 -1124 35 -1265 83 -400 330 -680 715 -811 187
-64 300 -86 570 -112 345 -33 821 -8 1360 73 l115 17 3 1508 2 1507 -415 -2
-415 -3 0 -1206 c0 -957 -2 -1208 -12 -1216 -32 -25 -205 -47 -368 -47 -144
-1 -176 2 -250 23 -246 68 -387 200 -435 405 -12 51 -15 222 -15 1054 l0 992
-445 0 -445 0 0 -917z"/>
<path d="M6645 4128 c-3 -7 -4 -690 -3 -1518 l3 -1505 1055 0 1055 0 3 352 2
353 -612 2 -613 3 -3 1163 -2 1162 -440 0 c-343 0 -442 -3 -445 -12z"/>
<path d="M9815 3494 c-175 -9 -416 -60 -627 -132 -154 -53 -150 -47 -119 -139
11 -32 48 -146 81 -253 34 -107 66 -199 71 -205 6 -6 35 5 78 28 92 50 237
101 348 122 71 13 125 16 235 13 164 -6 240 -27 310 -87 61 -52 78 -98 78
-213 0 -133 6 -130 -244 -140 -487 -20 -761 -108 -947 -305 -116 -124 -159
-245 -159 -450 0 -223 53 -357 200 -503 98 -99 184 -147 320 -181 74 -19 103
-21 225 -15 272 11 426 73 601 239 39 37 74 67 77 67 3 0 20 -27 38 -61 96
-179 309 -251 622 -209 107 14 240 40 249 49 7 6 -2 205 -18 392 l-6 77 -57
-5 c-69 -6 -97 12 -111 72 -5 22 -10 279 -10 570 0 436 -3 546 -16 620 -60
345 -277 542 -694 630 -75 16 -377 27 -525 19z m455 -1571 c0 -124 -3 -143
-24 -188 -42 -90 -130 -155 -235 -175 -108 -20 -172 -7 -232 47 -59 53 -79 99
-79 179 0 150 80 223 295 268 11 2 77 4 148 5 l127 1 0 -137z"/>
</g>
</svg>
